<svg width="22" height="31" fill="none" xmlns="http://www.w3.org/2000/svg"><path d="M4.659 1.422c.69-.32 1.43-.45 2.14-.77 1.05-.47 2.2-.75 3.53-.62-.78.6-1.62.37-2.3.73-1.15.37-2.22.87-2.99 1.93-.25.35-.48.7-.54 1.16-.16.04-.16.17-.13.32-.78 2.81 1.17 4.74 3.11 5.84 2.78 1.58 5.79 2.51 8.63 3.94 1.59.8 3.1 1.76 4.29 3.22 2 2.45 1.98 6.09.03 8.66-1.25 1.64-2.81 2.76-4.62 3.48-1.23.49-2.48.97-3.82 1.02-.24.01-.51.14-.73-.21.58-.38 1.24-.26 1.84-.42 1.5-.39 2.9-1 3.83-2.42.85-1.3 1.11-2.81.71-4.36-.28-1.08-1.02-1.86-1.87-2.51-1.77-1.35-3.79-2.09-5.77-2.92-2.36-.98-4.75-1.86-6.86-3.45-1.15-.87-2.16-1.88-2.69-3.36-.74-2.03-.56-3.98.5-5.79.51-.87 1.12-1.67 1.88-2.3.17.03.29-.04.34-.23h.04l.02-.04c.46-.19.91-.41 1.26-.81.05-.03.11-.06.17-.09zm1.99 21.8c.03.25.05.5.08.75-.18.18-.18.41-.17.65-.66 2.51-3.26 3.03-4.84 1.86-.82-.6-1.47-1.99-1.25-3.19.24-1.32.91-2.19 1.96-2.51 1.21-.38 2.48-.29 3.47.89.26.31.3.72.57 1-.05.22-.04.43.18.55zm7.6-18.36c.26-.81.54-1.59 1.2-2.13.92-.74 1.91-.84 2.98-.48.2.07.4.13.6.2h.01c.37.43.75.86 1.12 1.28.27.66.31 1.36.33 2.07-.1.06-.12.14-.08.25-.07.2-.13.41-.2.61-.17.3-.47.51-.55.88-.11 0-.18.05-.21.17-.15.02-.29.07-.29.28-.1.04-.2.09-.3.13-.2-.06-.3.07-.38.24l-.37.06c-.39.02-.77.05-1.16.07-.08 0-.17-.01-.25-.01-.37-.25-.74-.47-1.18-.52-.04-.03-.07-.07-.11-.1l-.2-.2c-.1-.05-.15-.01-.15.11l.01-.01c.14-.35-.21-.44-.29-.68-.26-.62-.46-1.27-.53-1.95.01-.08.01-.17 0-.27z" fill="#fff"/></svg>