<svg width="23" height="21" fill="none" xmlns="http://www.w3.org/2000/svg"><path d="M8.12 18.743c-.03-.091-.03-.213-.06-.335-.447-2.104-.925-4.209-1.402-6.343-.09-.458-.06-.58.358-.854 3.613-2.287 7.225-4.574 10.867-6.892.09-.061.18-.122.269-.153.12-.03.209 0 .269.092.06.091.06.183-.03.274-.06.122-.15.183-.21.275L14.51 8.1a7059.761 7059.761 0 01-5.494 4.971c-.149.153-.298.275-.328.519-.09 1.707-.21 3.415-.329 5.123 0 .183.06.183.18.183.298 0 .507-.122.716-.336.776-.823 1.582-1.646 2.359-2.47.209-.213.328-.213.537-.03 1.612 1.22 3.254 2.44 4.866 3.66.807.61 1.643.274 1.852-.702.209-1.007.418-1.982.627-2.989.925-4.635 1.88-9.27 2.806-13.906.03-.152.06-.335.03-.488-.09-.58-.717-1.098-1.583-.762-4 1.616-8.03 3.232-12.031 4.818C6.03 6.76 3.314 7.826.627 8.893c-.209.092-.388.183-.508.397-.268.457-.03.976.508 1.159 1.582.488 3.165.945 4.747 1.433.269.06.388.183.478.488.567 1.921 1.164 3.812 1.761 5.733.09.274.15.58.508.64z" fill="#7AA4D9"/><path d="M8.12 18.743c-.358-.06-.417-.366-.507-.64-.597-1.921-1.194-3.812-1.761-5.733-.09-.305-.21-.427-.478-.488-1.582-.488-3.165-.945-4.747-1.434-.537-.183-.776-.7-.508-1.158.12-.214.299-.305.508-.366 2.687-1.068 5.404-2.135 8.09-3.202C12.719 4.105 16.75 2.489 20.75.872c.866-.335 1.463.184 1.583.763.03.183 0 .336-.03.488-.926 4.636-1.881 9.27-2.836 13.876a87.721 87.721 0 01-.598 2.988c-.208.976-1.074 1.312-1.85.702-1.613-1.22-3.255-2.44-4.867-3.66-.239-.152-.358-.152-.537.061-.777.824-1.583 1.647-2.359 2.47-.209.214-.418.336-.716.336-.12 0-.18 0-.18-.183.12-1.708.24-3.416.329-5.123.03-.244.179-.366.328-.519a938.415 938.415 0 015.494-4.94c1.224-1.098 2.448-2.226 3.672-3.324.06-.061.15-.122.209-.214a.233.233 0 000-.274c-.06-.122-.15-.153-.269-.122-.09.03-.179.091-.269.152-3.612 2.288-7.225 4.575-10.867 6.892-.388.244-.418.366-.328.824.477 2.135.955 4.239 1.403 6.343.03.122.03.244.06.335z" fill="#FDFEFE"/></svg>