<svg width="26" height="22" fill="none" xmlns="http://www.w3.org/2000/svg"><path d="M25.129 3.337c-.478.823-1.165 1.494-1.91 2.104-.36.274-.449.58-.449 1.037-.209 5.794-2.567 10.399-7.583 13.204-4.598 2.593-9.374 2.501-14.062.061-.268-.152-.537-.274-.806-.488 2.717.153 5.165-.518 7.434-2.256-2.329-.244-3.91-1.434-4.777-3.63.747 0 1.433.123 2.18-.152-2.508-.854-3.852-2.5-4.03-5.184.746.244 1.403.58 2.298.58C1.961 7.422 1.185 5.99 1.185 4.16c0-.884.209-1.738.687-2.531 1.522 1.769 3.224 3.172 5.254 4.147 1.612.763 3.284 1.16 5.046 1.342.418.061.298-.213.268-.427-.09-1.525.21-2.897 1.165-4.117C15.396.348 18.59-.048 20.8 1.751c.507.427.955.518 1.523.305.716-.244 1.433-.549 2.239-.915-.329 1.19-1.015 1.921-1.822 2.592.359.092.359.092 1.165-.122.388-.122.776-.244 1.194-.366 0 .061.03.092.03.092z" fill="#FDFEFE"/><path d="M25.07 3.245h.148c-.03.03-.06.061-.06.092-.03 0-.059-.03-.089-.092z" fill="#FDFEFE"/></svg>