<svg width="25" height="24" fill="none" xmlns="http://www.w3.org/2000/svg"><path d="M.653 24c.508-1.89.956-3.66 1.463-5.398.15-.518.12-.915-.12-1.402C-1.883 9.21 3.908-.122 12.656.03 18.447.123 23.582 4.97 24 10.766c.448 6.373-3.672 11.832-9.613 12.839-2.478.427-4.837.091-7.076-1.007-.358-.183-.657-.183-1.045-.06-1.821.457-3.642.914-5.613 1.463zm2.866-2.866c.896-.244 1.732-.428 2.538-.702.717-.244 1.284-.122 1.94.213 3.553 1.77 7.017 1.525 10.181-.914 3.135-2.41 4.36-5.764 3.672-9.698C20.835 4.391 15.193.823 9.908 2.38 4.325 3.995 1.191 9.942 3.43 15.309c.836 2.013.776 3.66.12 5.489-.03.092-.03.153-.03.336z" fill="#F8F8F8"/><path d="M15.133 17.596c-1.552-.183-3.165-.945-4.627-2.104a13.493 13.493 0 01-3.404-4.087c-.955-1.738-.836-3.263.269-4.482.836-.915 1.82-.763 2.269.396.12.305.209.61.358.884.537.885.567 1.708-.269 2.44-.298.274-.239.549-.06.854.926 1.494 2.15 2.592 3.732 3.293.568.244.717-.122.986-.427.955-1.128.955-1.128 2.299-.487.209.091.418.213.626.305 1.135.579 1.254 1.646.329 2.53-.597.58-1.344.885-2.508.885z" fill="#F8F8F8"/></svg>